<svg id="Layer_3" enable-background="new 0 0 64 64" height="512" viewBox="0 0 64 64" width="512" xmlns="http://www.w3.org/2000/svg"><g><path d="m11 2h18v12h-18z" fill="#758190"/><path d="m11 14h4.598c4.781-1.456 8.261-5.898 8.261-11.155 0-.285-.023-.565-.043-.845h-12.816z" fill="#8892a0"/><path d="m51 14c2.761 0 5 2.239 5 5h-10c0-2.761 2.239-5 5-5z" fill="#c7e2fc"/><path d="m2 48h60v14h-60z" fill="#a8b0bc"/><path d="m9 48v6h46v-6" fill="#758190"/><path d="m9 48h46v3h-46z" fill="#8892a0"/><path d="m62 48-7-12h-46l-7 12" fill="#e7e4dd"/><path d="m55 36-2-12h-42l-2 12z" fill="#a8b0bc"/><path d="m18 14h4v6h-4z" fill="#a8b0bc"/><g><path d="m31.999 59.998c-1.104 0-2-.896-2-1.999 0-1.104.896-2 2-2 1.103 0 1.999.896 1.999 2 0 1.103-.896 1.999-1.999 1.999z" fill="#606060"/></g><path d="m15 24v-4h10v4" fill="#758190"/><path d="m15 6h10v4h-10z" fill="#c7e2fc"/><path d="m15 28h10v4h-10z" fill="#c7e2fc"/><path d="m46 30v-11c0-2.761 2.239-5 5-5h-14c-2.761 0-5 2.239-5 5v11" fill="#ebf7fe"/><g><path d="m29 28.999h19.998v1.999h-19.998z" fill="#8892a0"/></g><g><path d="m10.999 38.999h7.999v1.999h-7.999z" fill="#cbc3b6"/></g><g><path d="m20.999 38.999h7.999v1.999h-7.999z" fill="#cbc3b6"/></g><g><path d="m19 42.999h7.999v1.999h-7.999z" fill="#cbc3b6"/></g><g><path d="m8 42.999h7.999v1.999h-7.999z" fill="#cbc3b6"/></g><g><path d="m45 38.999h7.999v1.999h-7.999z" fill="#cbc3b6"/></g><g><path d="m35 38.999h7.999v1.999h-7.999z" fill="#cbc3b6"/></g><g><path d="m37 43h7.999v1.999h-7.999z" fill="#cbc3b6"/></g><g><path d="m48 43h7.999v1.999h-7.999z" fill="#cbc3b6"/></g><g><path d="m28.999 42.999h5.999v1.999h-5.999z" fill="#cbc3b6"/></g><g><path d="m35.999 17.999h1.999v1.999h-1.999z" fill="#a8b0bc"/></g><g><path d="m40 17.999h1.999v1.999h-1.999z" fill="#a8b0bc"/></g><g><path d="m34.999 21.999h7.999v1.999h-7.999z" fill="#a8b0bc"/></g><path d="m23.415 6h-8.415v4h6.393c.915-1.175 1.609-2.527 2.022-4z" fill="#ebf7fe"/><path d="m23.334 28h-8.334v4h6.525c.98-1.086 1.636-2.468 1.809-4z" fill="#ebf7fe"/><g><path d="m62.85 47.504.013-.008-6.907-11.842-1.97-11.82c-.081-.481-.498-.834-.987-.834h-6v-3h9c.553 0 1-.448 1-1 0-3.31-2.691-6.001-5.999-6.001h-.001-13.999c-3.309 0-6 2.691-6 6v4.001h-5.001v-3.001c0-.553-.447-1-1-1h-2v-4.001h6c.553 0 1-.447 1-1v-11.998c0-.553-.447-1-1-1h-17.999c-.553 0-1 .447-1 1v11.998c0 .553.447 1 1 1h6v4.001h-2c-.553 0-1 .447-1 1v3.001h-3c-.489 0-.906.353-.987.835l-1.97 11.82-6.907 11.84.013.008c-.087.148-.15.311-.15.495v14.001c0 .552.448 1 1 1h60.001c.552 0 1-.448 1-1v-14.001c0-.184-.063-.346-.15-.494zm-52.85 1.494h43.999v4h-43.999zm-6.259-2 5.834-10h44.851l5.833 10zm47.258-31.999s.001 0 0 0c1.861 0 3.429 1.276 3.874 3.001h-7.732c.447-1.721 2-3.001 3.858-3.001zm-13.999 0h9.531c-.952 1.062-1.532 2.464-1.532 4v10h-11.999v-10c0-2.206 1.794-4 4-4zm-25-11.999h15.999v9.998h-15.999zm6.999 11.998h2.001v4.001h-2.001zm-2.999 6.001h7.999v2.001h-7.999zm-4.153 4.001h19.153v3.999h-2v1.999h19.999v-1.999h-2v-3.999h5.153l1.666 9.998h-43.638zm49.153 35.999h-58.001v-12.001h5.001v5c0 .553.447 1 1 1h45.999c.553 0 1-.447 1-1v-5h5.001z"/><path d="m32 55.999c-1.104 0-2 .896-2 2 0 1.103.896 1.999 2 1.999 1.103 0 1.999-.896 1.999-1.999s-.896-2-1.999-2z"/><path d="m24.999 5h-9.999c-.553 0-1 .447-1 1v3.999c0 .553.447 1 1 1h9.999c.553 0 1-.447 1-1v-3.999c0-.553-.447-1-1-1zm-1 3.999h-7.999v-1.999h7.999z"/><path d="m15 32.998h9.999c.553 0 1-.447 1-1v-3.999c0-.553-.447-1-1-1h-9.999c-.553 0-1 .447-1 1v3.999c0 .553.447 1 1 1zm1-3.999h7.999v1.999h-7.999z"/><path d="m11 38.999h7.999v1.999h-7.999z"/><path d="m21 38.999h7.999v1.999h-7.999z"/><path d="m19 42.999h7.999v1.999h-7.999z"/><path d="m8 42.999h7.999v1.999h-7.999z"/><path d="m45 38.999h7.999v1.999h-7.999z"/><path d="m35 38.999h7.999v1.999h-7.999z"/><path d="m37 43h7.999v1.999h-7.999z"/><path d="m48 43h7.999v1.999h-7.999z"/><path d="m29 42.999h5.999v1.999h-5.999z"/><path d="m36 17.999h1.999v1.999h-1.999z"/><path d="m40 17.999h1.999v1.999h-1.999z"/><path d="m35 21.999h7.999v1.999h-7.999z"/></g></g></svg>